<svg width="78" height="78" viewBox="0 0 78 78" fill="none" xmlns="http://www.w3.org/2000/svg">
<rect width="77.4893" height="77.4893" fill="#F7F7F7" fill-opacity="0.12"/>
<g clip-path="url(#clip0_3933_819)">
<path d="M39 19C27.9459 19 19 27.9451 19 39C19 50.0541 27.9451 59 39 59C50.0541 59 59 50.0549 59 39C59 27.9459 50.0549 19 39 19ZM31.2614 23.1213C30.6562 24.7697 30.1481 26.4453 29.738 28.1444C28.5395 27.7802 27.3605 27.3436 26.2034 26.8348C27.6686 25.2955 29.3759 24.0422 31.2614 23.1213ZM24.6514 28.7063C26.1491 29.3998 27.682 29.9797 29.2453 30.4448C28.7917 32.8661 28.5323 35.3305 28.4708 37.8281H21.383C21.5988 34.5124 22.7287 31.3742 24.6514 28.7063ZM24.6514 49.2938C22.7287 46.6258 21.5988 43.4876 21.383 40.1719H28.4708C28.5323 42.6695 28.7917 45.1339 29.2453 47.5552C27.682 48.0203 26.1492 48.6002 24.6514 49.2938ZM26.2034 51.1652C27.3605 50.6564 28.5395 50.2198 29.738 49.8557C30.1482 51.5548 30.6562 53.2304 31.2614 54.8787C29.3769 53.9584 27.6694 52.7052 26.2034 51.1652ZM37.8281 56.617C36.5973 56.537 35.3909 56.3315 34.2238 56.0057C33.2969 53.8088 32.557 51.5563 32.0052 49.2586C33.9051 48.8338 35.8489 48.5855 37.8281 48.5152V56.617ZM37.8281 46.1701C35.6838 46.2409 33.5777 46.5066 31.5195 46.965C31.1105 44.7362 30.8749 42.4689 30.8153 40.1719H37.8281V46.1701ZM37.8281 37.8281H30.8153C30.8749 35.5311 31.1105 33.2638 31.5195 31.035C33.5777 31.4934 35.6838 31.7591 37.8281 31.8299V37.8281ZM37.8281 29.4848C35.8489 29.4145 33.9051 29.1662 32.0052 28.7414C32.557 26.4437 33.2969 24.1912 34.2238 21.9943C35.3909 21.6685 36.5973 21.463 37.8281 21.383V29.4848ZM53.3486 28.7063C55.2712 31.3742 56.4012 34.5124 56.617 37.8281H49.5292C49.4677 35.3305 49.2083 32.8661 48.7547 30.4448C50.318 29.9797 51.8508 29.3998 53.3486 28.7063ZM51.7966 26.8348C50.6395 27.3436 49.4605 27.7802 48.262 28.1443C47.8518 26.4452 47.3438 24.7696 46.7386 23.1213C48.6231 24.0416 50.3306 25.2948 51.7966 26.8348ZM40.1719 21.383C41.4027 21.463 42.6091 21.6685 43.7762 21.9943C44.7031 24.1912 45.443 26.4437 45.9948 28.7414C44.0949 29.1662 42.1511 29.4145 40.1719 29.4848V21.383ZM40.1719 31.8299C42.3162 31.7591 44.4223 31.4934 46.4805 31.035C46.8895 33.2638 47.1251 35.5311 47.1847 37.8281H40.1719V31.8299ZM43.7761 56.0056C42.6091 56.3315 41.4027 56.537 40.1719 56.617V48.5152C42.1511 48.5855 44.0949 48.8338 45.9948 49.2586C45.4429 51.5563 44.7031 53.8088 43.7761 56.0056ZM40.1719 46.1701V40.1719H47.1847C47.1251 42.4689 46.8895 44.7362 46.4805 46.965C44.4223 46.5066 42.3162 46.2409 40.1719 46.1701ZM46.7386 54.8787C47.3438 53.2303 47.8519 51.5547 48.262 49.8556C49.4605 50.2198 50.6395 50.6564 51.7966 51.1652C50.3314 52.7045 48.6241 53.9578 46.7386 54.8787ZM53.3486 49.2938C51.8509 48.6002 50.318 48.0203 48.7547 47.5552C49.2083 45.1339 49.4677 42.6695 49.5292 40.1719H56.617C56.4012 43.4876 55.2712 46.6258 53.3486 49.2938Z" fill="#F7F7F7"/>
</g>
<defs>
<clipPath id="clip0_3933_819">
<rect width="40" height="40" fill="white" transform="translate(19 19)"/>
</clipPath>
</defs>
</svg>
