<svg width="78" height="78" viewBox="0 0 78 78" fill="none" xmlns="http://www.w3.org/2000/svg">
<rect width="77.4893" height="77.4893" fill="#F7F7F7" fill-opacity="0.12"/>
<path fill-rule="evenodd" clip-rule="evenodd" d="M37.6875 44.2502C37.6875 43.2054 37.2728 42.204 36.5338 41.4663C35.7962 40.7274 34.7947 40.3127 33.75 40.3127C31.1434 40.3127 27.1691 40.3127 24.5625 40.3127C23.5177 40.3127 22.5163 40.7274 21.7787 41.4663C21.0397 42.204 20.625 43.2054 20.625 44.2502V53.4377C20.625 54.4824 21.0397 55.4838 21.7787 56.2215C22.5163 56.9604 23.5177 57.3752 24.5625 57.3752H33.75C34.7947 57.3752 35.7962 56.9604 36.5338 56.2215C37.2728 55.4838 37.6875 54.4824 37.6875 53.4377V44.2502ZM57.375 44.2502C57.375 43.2054 56.9603 42.204 56.2213 41.4663C55.4837 40.7274 54.4822 40.3127 53.4375 40.3127C50.8309 40.3127 46.8566 40.3127 44.25 40.3127C43.2052 40.3127 42.2038 40.7274 41.4662 41.4663C40.7272 42.204 40.3125 43.2054 40.3125 44.2502V53.4377C40.3125 54.4824 40.7272 55.4838 41.4662 56.2215C42.2038 56.9604 43.2052 57.3752 44.25 57.3752H53.4375C54.4822 57.3752 55.4837 56.9604 56.2213 56.2215C56.9603 55.4838 57.375 54.4824 57.375 53.4377V44.2502ZM35.0625 44.2502V53.4377C35.0625 53.7855 34.9247 54.1202 34.6779 54.3656C34.4325 54.6123 34.0978 54.7502 33.75 54.7502H24.5625C24.2147 54.7502 23.88 54.6123 23.6346 54.3656C23.3878 54.1202 23.25 53.7855 23.25 53.4377V44.2502C23.25 43.9023 23.3878 43.5677 23.6346 43.3222C23.88 43.0755 24.2147 42.9377 24.5625 42.9377H33.75C34.0978 42.9377 34.4325 43.0755 34.6779 43.3222C34.9247 43.5677 35.0625 43.9023 35.0625 44.2502ZM54.75 44.2502V53.4377C54.75 53.7855 54.6122 54.1202 54.3654 54.3656C54.12 54.6123 53.7853 54.7502 53.4375 54.7502H44.25C43.9022 54.7502 43.5675 54.6123 43.3221 54.3656C43.0753 54.1202 42.9375 53.7855 42.9375 53.4377V44.2502C42.9375 43.9023 43.0753 43.5677 43.3221 43.3222C43.5675 43.0755 43.9022 42.9377 44.25 42.9377H53.4375C53.7853 42.9377 54.12 43.0755 54.3654 43.3222C54.6122 43.5677 54.75 43.9023 54.75 44.2502ZM51.6276 37.416L57.1033 31.9402C58.6402 30.4033 58.6402 27.9095 57.1033 26.3726L51.6276 20.8968C50.0906 19.3599 47.5969 19.3599 46.0599 20.8968L40.5842 26.3726C39.0472 27.9095 39.0472 30.4033 40.5842 31.9402L46.0599 37.416C47.5969 38.9529 50.0906 38.9529 51.6276 37.416ZM37.6875 24.5627C37.6875 23.5179 37.2728 22.5165 36.5338 21.7788C35.7962 21.0399 34.7947 20.6252 33.75 20.6252C31.1434 20.6252 27.1691 20.6252 24.5625 20.6252C23.5177 20.6252 22.5163 21.0399 21.7787 21.7788C21.0397 22.5165 20.625 23.5179 20.625 24.5627V33.7502C20.625 34.7949 21.0397 35.7963 21.7787 36.534C22.5163 37.2729 23.5177 37.6877 24.5625 37.6877H33.75C34.7947 37.6877 35.7962 37.2729 36.5338 36.534C37.2728 35.7963 37.6875 34.7949 37.6875 33.7502V24.5627ZM55.2474 30.0843L49.7717 35.5601C49.2598 36.072 48.4277 36.072 47.9158 35.5601L42.4401 30.0843C41.9282 29.5725 41.9282 28.7403 42.4401 28.2285L47.9158 22.7527C48.4277 22.2408 49.2598 22.2408 49.7717 22.7527L55.2474 28.2285C55.7593 28.7403 55.7593 29.5725 55.2474 30.0843ZM35.0625 24.5627V33.7502C35.0625 34.098 34.9247 34.4327 34.6779 34.6781C34.4325 34.9248 34.0978 35.0627 33.75 35.0627H24.5625C24.2147 35.0627 23.88 34.9248 23.6346 34.6781C23.3878 34.4327 23.25 34.098 23.25 33.7502V24.5627C23.25 24.2148 23.3878 23.8802 23.6346 23.6347C23.88 23.388 24.2147 23.2502 24.5625 23.2502H33.75C34.0978 23.2502 34.4325 23.388 34.6779 23.6347C34.9247 23.8802 35.0625 24.2148 35.0625 24.5627Z" fill="#F7F7F7"/>
</svg>
