<svg width="78" height="78" viewBox="0 0 78 78" fill="none" xmlns="http://www.w3.org/2000/svg">
<rect width="77.4893" height="77.4893" fill="#F7F7F7" fill-opacity="0.12"/>
<path d="M49.2571 36.3277C48.4311 34.3695 46.1338 33.5297 44.2571 34.4527C43.8335 33.4483 42.9751 32.6708 41.9193 32.3559C43.2137 30.8793 43.9188 29.0127 43.9188 27.0469C43.9188 22.6098 40.309 19 35.8719 19C31.4349 19 27.825 22.6098 27.825 27.0469C27.825 30.1773 29.6114 32.8814 32.2 34.2078V41.3067C31.7381 40.7544 31.376 40.3467 31.0755 40.0463C30.0779 39.0487 28.8336 38.4531 27.7468 38.4531C24.9954 38.4531 23.8589 39.914 23.659 40.2068C23.3488 40.6613 23.3989 41.2648 23.7657 41.6623C23.9525 41.9741 24.7646 43.4999 27.9232 50.7197C28.679 52.4473 29.6983 53.6178 30.5173 54.5584C31.5306 55.7219 32.2 56.4906 32.2 57.8281C32.2 58.4753 32.7247 59 33.3718 59H51.4968C52.144 59 52.6687 58.4753 52.6687 57.8281C52.6687 55.0652 54.5437 53.5962 54.5437 49.625V39.625C54.5437 36.9019 51.675 35.1384 49.2571 36.3277ZM30.1687 27.0469C30.1687 23.9022 32.7272 21.3438 35.8718 21.3438C39.0165 21.3438 41.575 23.9022 41.575 27.0469C41.575 28.7768 40.8136 30.3558 39.5437 31.417V27.125C39.5437 25.1003 37.8965 23.4531 35.8718 23.4531C33.8472 23.4531 32.2 25.1003 32.2 27.125V31.417C30.93 30.3558 30.1687 28.7768 30.1687 27.0469ZM52.2 49.625C52.2 52.7095 50.774 53.9613 50.404 56.6562H34.4274C33.8468 53.8477 31.3985 52.8159 30.0705 49.7803C29.1798 47.7445 27.1448 43.1145 26.1361 41.1278C26.4767 40.9566 26.9956 40.797 27.7469 40.797C28.1275 40.797 28.7918 41.0773 29.4183 41.7037C29.9863 42.2717 30.9234 43.4246 32.454 45.3534C32.7638 45.744 33.287 45.8958 33.7576 45.7316C34.2284 45.5675 34.5438 45.1235 34.5438 44.625V27.125C34.5438 26.3927 35.1396 25.7969 35.8719 25.7969C36.6043 25.7969 37.2 26.3927 37.2 27.125V40.875C37.2 41.5222 37.7247 42.0469 38.3719 42.0469C39.0191 42.0469 39.5438 41.5222 39.5438 40.875V35.875C39.5438 35.1427 40.1396 34.5469 40.8719 34.5469C41.6043 34.5469 42.2 35.1427 42.2 35.875V40.875C42.2 41.5222 42.7247 42.0469 43.3719 42.0469C44.0191 42.0469 44.5438 41.5222 44.5438 40.875V37.75C44.5438 37.0177 45.1396 36.4219 45.8719 36.4219C46.6043 36.4219 47.2 37.0177 47.2 37.75V40.875C47.2 41.5222 47.7247 42.0469 48.3719 42.0469C49.0191 42.0469 49.5438 41.5222 49.5438 40.875V39.625C49.5438 38.8927 50.1396 38.2969 50.8719 38.2969C51.6043 38.2969 52.2 38.8927 52.2 39.625L52.2 49.625Z" fill="#F7F7F7"/>
</svg>
