<svg width="78" height="78" viewBox="0 0 78 78" fill="none" xmlns="http://www.w3.org/2000/svg">
<rect width="77.4893" height="77.4893" fill="#F7F7F7" fill-opacity="0.12"/>
<g clip-path="url(#clip0_2270_2032)">
<path d="M24.1641 46.3828H33.7266V48.4922H30.5625C29.9799 48.4922 29.5078 48.9643 29.5078 49.5469C29.5078 50.1294 29.9799 50.6016 30.5625 50.6016H42.2344V53.8359C42.2344 55.5806 43.6538 57 45.3984 57H53.8359C55.5806 57 57 55.5806 57 53.8359V36.8906C57 35.146 55.5806 33.7266 53.8359 33.7266H52.7812V24.1641C52.7812 22.4194 51.3618 21 49.6172 21H24.1641C22.4194 21 21 22.4194 21 24.1641V43.2188C21 44.9634 22.4194 46.3828 24.1641 46.3828ZM23.1094 43.2188V42.1641H42.2344V44.2734H24.1641C23.5826 44.2734 23.1094 43.8002 23.1094 43.2188ZM54.8906 50.6719H44.3438V40.0547H54.8906V50.6719ZM35.8359 46.3828H37.9453V48.4922H35.8359V46.3828ZM40.0547 48.4922V46.3828H42.2344V48.4922H40.0547ZM53.8359 54.8906H45.3984C44.817 54.8906 44.3438 54.4174 44.3438 53.8359V52.7812H54.8906V53.8359C54.8906 54.4174 54.4174 54.8906 53.8359 54.8906ZM54.8906 36.8906V37.9453H44.3438V36.8906C44.3438 36.3092 44.817 35.8359 45.3984 35.8359H53.8359C54.4174 35.8359 54.8906 36.3092 54.8906 36.8906ZM24.1641 23.1094H49.6172C50.1986 23.1094 50.6719 23.5826 50.6719 24.1641V33.7266H45.3984C43.6538 33.7266 42.2344 35.146 42.2344 36.8906V40.0547H23.1094V24.1641C23.1094 23.5826 23.5826 23.1094 24.1641 23.1094Z" fill="#F7F7F7"/>
</g>
<defs>
<clipPath id="clip0_2270_2032">
<rect width="36" height="36" fill="white" transform="translate(21 21)"/>
</clipPath>
</defs>
</svg>
